<svg id="VIRTUAL_CARD_-_VISA" data-name="VIRTUAL CARD - VISA" xmlns="http://www.w3.org/2000/svg" viewBox="0 0 243 152"><defs><style>.cls-1{font-size:5px;}.cls-1,.cls-4,.cls-5,.cls-6{fill:#fff;}.cls-1,.cls-4,.cls-5{font-family:ArialMT, Arial;}.cls-2{letter-spacing:-0.07em;}.cls-3{letter-spacing:-0.02em;}.cls-4{font-size:6px;}.cls-5{font-size:10px;}</style></defs><title>VIRTUAL CARD - DARK</title><g id="DARK"><g id="REQUIRED_BUT_EDITABLE" data-name="REQUIRED BUT EDITABLE"><rect id="BACKGROUND" width="243" height="152" rx="15.43" ry="15.43"/><g id="PERSO_DETAILS_-_EDIT_FONT_SIZE_TYPE_ONLY" data-name="PERSO DETAILS - EDIT FONT SIZE &amp; TYPE ONLY"><text class="cls-1" transform="translate(24.73 106.56)"><tspan class="cls-3" x="10.75" y="0"> </tspan></text></g></g><g id="REQUIRED_-_DO_NOT_TOUCH" data-name="REQUIRED - DO NOT TOUCH"><text class="cls-4" transform="translate(177.98 30.37)">LIMITED USE</text><text class="cls-5" transform="translate(177.3 20.83)"><tspan class="cls-3">V</tspan><tspan x="6.49" y="0">irtual Card</tspan></text></g><g id="BRAND_MARKS_-_PICK_ONE_DELETE_REST" data-name="BRAND MARKS - PICK ONE &amp; DELETE REST"><g id="CONSUMER_PREPAID_DEBIT" data-name="CONSUMER PREPAID &amp; DEBIT"><path id="BRAND_MARK" data-name="BRAND MARK" class="cls-6" d="M203.6,118.47l-3.06,14.31h-3.7l3.06-14.31Zm15.58,9.24,1.94-5.38,1.12,5.38Zm4.13,5.07h3.42l-3-14.31h-3.16a1.69,1.69,0,0,0-1.58,1l-5.55,13.26h3.89l.77-2.14h4.75l.45,2.14Zm-9.67-4.68c0-3.77-5.22-4-5.18-5.67,0-.51.5-1.06,1.57-1.2a7,7,0,0,1,3.65.64l.65-3a9.81,9.81,0,0,0-3.47-.64c-3.65,0-6.23,2-6.25,4.74,0,2,1.84,3.2,3.24,3.89s1.92,1.15,1.92,1.78c0,1-1.15,1.38-2.22,1.4a7.62,7.62,0,0,1-3.8-.91l-.67,3.14a11.19,11.19,0,0,0,4.12.76c3.89,0,6.43-1.92,6.44-4.9m-15.33-9.63-6,14.31H188.4l-3-11.42a1.56,1.56,0,0,0-.88-1.26,15.09,15.09,0,0,0-3.66-1.22l.09-.41h6.3a1.72,1.72,0,0,1,1.71,1.45l1.56,8.29,3.85-9.74Z"/></g></g></g></svg>