<?xml version="1.0" encoding="utf-8"?>
<!-- Generator: Adobe Illustrator 22.1.0, SVG Export Plug-In . SVG Version: 6.00 Build 0)  -->
<svg version="1.1" id="Celo_Logotype" xmlns="http://www.w3.org/2000/svg" xmlns:xlink="http://www.w3.org/1999/xlink" x="0px"
	 y="0px" viewBox="0 0 3952 1013.5" style="enable-background:new 0 0 3952 1013.5;" xml:space="preserve">
<style type="text/css">
	.st0{fill:#2D3339;}
	.st1{fill:#35D07F;}
	.st2{fill:#FBCC5C;}
	.st3{fill:#ECFF8F;}
</style>
<title>Artboard 1</title>
<path id="Type" class="st0" d="M2817,869.4l86-27v-712l-86,27V869.4z M1825,437.4c54,0,104,24,136,64l35-81c-46-44-107-65-171-65
	c-148,0-250,117-249,246c1,140,111,254,249,254c70,0,123-21,163-50v-99c-42,42-103,67-156,67c-80,0-170-65-170-172
	C1662,502.4,1740,437.4,1825,437.4z M2397,355.4c-148,0-234,117-234,246c0,140,111,254,249,254c70,0,123-21,163-50v-99
	c-42,42-103,67-156,67c-71,0-149-44-165-137h377v-33C2631,465.4,2540,355.4,2397,355.4z M3326,355.4c-138,0-250,112-250,250
	s112,250,250,250s250-112,250-250S3464,355.4,3326,355.4z M2398,437.4c67,0,138,42,144,123h-288C2260,479.4,2331,437.4,2398,437.4z
	 M3326,773.4c-92.8,0-168-75.2-168-168s75.2-168,168-168s168,75.2,168,168c0.2,92.6-74.8,167.8-167.4,168
	C3326.4,773.4,3326.2,773.4,3326,773.4z"/>
<path id="Top_Ring" class="st1" d="M951,680.4c151.9,0,275-123.1,275-275s-123.1-275-275-275s-275,123.1-275,275
	S799.1,680.4,951,680.4z M951,780.4c-207.1,0-375-167.9-375-375s167.9-375,375-375s375,167.9,375,375S1158.1,780.4,951,780.4z"/>
<path id="Bottom_Ring" class="st2" d="M751,880.4c151.9,0,275-123.1,275-275s-123.1-275-275-275s-275,123.1-275,275
	S599.1,880.4,751,880.4z M751,980.4c-207.1,0-375-167.9-375-375s167.9-375,375-375s375,167.9,375,375S958.1,980.4,751,980.4z"/>
<path id="Rings_Overlap" class="st3" d="M963.3,780.2c26-31.5,44.6-68.4,54.5-108c39.6-9.9,76.5-28.5,108-54.5
	c-1.4,45.9-11.3,91.1-29.1,133.4C1054.4,768.9,1009.2,778.8,963.3,780.2L963.3,780.2z M684.2,338.6c-39.6,9.9-76.5,28.5-108,54.5
	c1.4-45.9,11.3-91.1,29.1-133.4c42.3-17.8,87.5-27.7,133.4-29.1C712.7,262.1,694.1,299,684.2,338.6z"/>
</svg>
