<?xml version="1.0" encoding="utf-8"?>
<!-- Generator: Adobe Illustrator 22.1.0, SVG Export Plug-In . SVG Version: 6.00 Build 0)  -->
<svg version="1.1" id="Layer_1" xmlns="http://www.w3.org/2000/svg" xmlns:xlink="http://www.w3.org/1999/xlink" x="0px" y="0px"
	 viewBox="0 0 154 59.7" style="enable-background:new 0 0 154 59.7;" xml:space="preserve">
<style type="text/css">
	.st0{fill:#6D6C6C;}
</style>
<path class="st0" d="M44.7,30.3v7.9h2c1,0,2-0.4,2.7-1.2c0.6-0.8,1-1.8,1-2.8s-0.4-2-1.1-2.8c-0.7-0.7-1.7-1.2-2.7-1.2L44.7,30.3
	L44.7,30.3z M46.6,27.8c3.7,0,6.4,2.8,6.4,6.4s-2.8,6.4-6.4,6.4h-4.3c-0.2,0-0.3-0.1-0.3-0.3l0,0V28.1c0-0.2,0.1-0.3,0.3-0.3
	C42.3,27.8,46.6,27.8,46.6,27.8z M62.5,38.4c1.7,0,3.2-1,3.8-2.6c0.6-1.6,0.3-3.4-0.9-4.6c-1.2-1.2-2.9-1.6-4.5-0.9
	c-1.5,0.6-2.5,2.2-2.5,3.9C58.4,36.5,60.2,38.4,62.5,38.4 M62.5,27.5c3.8,0,6.8,3,6.8,6.7s-2.9,6.7-6.8,6.7c-3.8,0-6.8-3-6.8-6.7
	S58.7,27.5,62.5,27.5 M78.6,38.4c2.3,0,4.1-1.9,4.1-4.2S80.9,30,78.6,30c-2.3,0-4.1,1.9-4.1,4.2c0,1.1,0.4,2.2,1.2,3
	C76.5,38,77.5,38.4,78.6,38.4 M78.6,27.5c3.8,0,6.8,3,6.8,6.7s-3,6.7-6.8,6.7s-6.8-3-6.8-6.7S74.8,27.5,78.6,27.5 M94.4,30.3h-2.8
	v3.4h2.8c0.4,0,0.9-0.1,1.2-0.5c0.3-0.3,0.4-0.7,0.4-1.2s-0.2-0.9-0.5-1.2C95.3,30.4,94.8,30.3,94.4,30.3L94.4,30.3L94.4,30.3z
	 M88.9,28.1c0-0.2,0.1-0.3,0.3-0.3h5.2c2.5,0,4.3,1.9,4.3,4.2c0,1.6-0.8,3-2.2,3.7l2.4,4.4c0.1,0.1,0.1,0.2,0,0.3
	c-0.1,0.1-0.2,0.2-0.3,0.2h-2.1c-0.1,0-0.2-0.1-0.3-0.2l-2.3-4.3h-2.3v4.1c0,0.2-0.1,0.3-0.3,0.3l0,0h-2c-0.2,0-0.3-0.1-0.3-0.3l0,0
	L88.9,28.1L88.9,28.1z M105.7,30.3v7.9h2c1,0,2-0.4,2.7-1.2c0.7-0.7,1.1-1.7,1.1-2.8c0-1-0.3-2-1.1-2.8c-0.7-0.7-1.7-1.2-2.7-1.2
	C107.6,30.3,105.7,30.3,105.7,30.3z M107.6,27.9c3.7,0,6.4,2.8,6.4,6.4c0,3.6-2.8,6.4-6.4,6.4h-4.3c-0.2,0-0.3-0.1-0.3-0.3l0,0V28.2
	c0-0.2,0.1-0.3,0.3-0.3H107.6L107.6,27.9z M122.2,31l-1.5,4.2h3L122.2,31z M119.8,37.6l-1,2.8c0,0.1-0.2,0.2-0.3,0.2h-2.2
	c-0.1,0-0.2,0-0.3-0.1c-0.1-0.1-0.1-0.2,0-0.3l4.7-12.1c0-0.1,0.2-0.2,0.3-0.2h2.4c0.1,0,0.3,0.1,0.3,0.2l4.7,12.1
	c0,0.1,0,0.2,0,0.3c-0.1,0.1-0.2,0.1-0.3,0.1h-2.2c-0.1,0-0.3-0.1-0.3-0.2l-1-2.8H119.8L119.8,37.6z M130.9,31.3
	c0-2,1.7-3.7,4.4-3.7c1.4,0,2.8,0.5,3.9,1.5c0.1,0.1,0.1,0.3,0,0.5l0,0l-1.2,1.2c-0.1,0.1-0.3,0.1-0.4,0l0,0
	c-0.6-0.5-1.3-0.8-2.1-0.8c-1.1,0-1.9,0.6-1.9,1.4c0,2.4,6.3,1,6.3,5.6c0,2.3-1.7,4.1-4.7,4.1c-1.7,0-3.3-0.7-4.5-1.9
	c-0.1-0.1-0.1-0.3,0-0.5l0,0l1.2-1.2c0.1-0.1,0.3-0.1,0.4,0l0,0c0.7,0.7,1.7,1.1,2.7,1.1c1.3,0,2.2-0.7,2.2-1.6
	C137.2,34.5,130.9,35.9,130.9,31.3 M151.4,28.1v4.8H146v-4.8c0-0.2-0.1-0.3-0.3-0.3l0,0h-2c-0.2,0-0.3,0.1-0.3,0.3l0,0v12.1
	c0,0.2,0.1,0.3,0.3,0.3h2c0.2,0,0.3-0.1,0.3-0.3v-4.9h5.3v4.9c0,0.2,0.1,0.3,0.3,0.3h2c0.2,0,0.3-0.1,0.3-0.3V28.1
	c0-0.2-0.1-0.3-0.3-0.3l0,0h-2C151.5,27.8,151.4,28,151.4,28.1z M30.6,29.4c-1.4-2.6-4.2-4.2-7.2-4.2H0.8c-0.3,0-0.6,0.2-0.7,0.5
	C-0.1,26,0,26.3,0.2,26.5l4.9,4.9c0.4,0.4,1,0.7,1.6,0.7h16c1.1,0,2.1,0.9,2.1,2c0,1.1-0.9,2-2,2.1h-11c-0.3,0-0.6,0.2-0.7,0.5
	C11,37,11,37.3,11.3,37.5l4.9,4.9c0.4,0.4,1,0.7,1.6,0.7h5C29.3,43.1,34.2,36.2,30.6,29.4"/>
</svg>
